<?xml version="1.0" standalone="no"?>
<!DOCTYPE svg PUBLIC "-//W3C//DTD SVG 20010904//EN"
 "http://www.w3.org/TR/2001/REC-SVG-20010904/DTD/svg10.dtd">
<svg version="1.0" xmlns="http://www.w3.org/2000/svg"
 width="30px" height="30px"  viewBox="0 0 64.000000 64.000000"
 preserveAspectRatio="xMidYMid meet" fill="#ff006e">

<g transform="translate(0.000000,64.000000) scale(0.100000,-0.100000)"
 stroke="none">
<path d="M50 525 l0 -85 60 0 60 0 0 85 0 85 -60 0 -60 0 0 -85z m110 20 l0
-55 -45 0 -45 0 0 45 c0 36 3 45 18 45 14 0 15 2 2 10 -11 7 -4 10 28 10 l42
0 0 -55z m0 -80 c0 -11 -11 -15 -40 -15 -29 0 -40 4 -40 15 0 11 11 15 40 15
29 0 40 -4 40 -15z"/>
<path d="M190 525 l0 -85 55 0 55 0 0 85 0 85 -55 0 -55 0 0 -85z m100 20 l0
-55 -45 0 -45 0 0 45 c0 45 0 45 35 45 19 0 35 5 35 10 0 6 5 10 10 10 6 0 10
-25 10 -55z m0 -80 c0 -18 -40 -20 -41 -2 0 10 -2 10 -6 0 -7 -18 -43 -16 -43
2 0 11 12 15 45 15 33 0 45 -4 45 -15z"/>
<path d="M332 598 c-7 -7 -12 -41 -12 -83 0 -42 5 -76 12 -83 8 -8 50 -12 124
-12 93 0 113 3 118 16 11 28 6 150 -6 162 -16 16 -220 16 -236 0z m5 -115 c-2
-21 -4 -6 -4 32 0 39 2 55 4 38 2 -18 2 -50 0 -70z m44 77 c10 0 19 6 19 13 0
8 4 7 11 -3 8 -11 12 -12 16 -2 3 8 25 11 66 10 l62 -1 -50 -7 -50 -7 48 -1
47 -2 0 -61 c0 -52 -2 -60 -16 -55 -9 3 -54 6 -100 6 l-84 0 1 68 c0 37 3 61
6 55 2 -7 13 -13 24 -13z"/>
<path d="M52 338 l3 -73 33 -3 c27 -3 32 -7 27 -23 -6 -17 -1 -19 60 -19 62 0
66 1 60 20 -5 17 -2 20 24 20 l31 0 0 75 0 75 -120 0 -121 0 3 -72z m218 2 l0
-50 -95 0 -95 0 0 40 c0 39 1 40 38 41 l37 2 -40 7 c-30 5 -16 8 58 9 l97 1 0
-50z m-50 -90 c0 -13 -77 -13 -85 0 -4 6 12 10 39 10 25 0 46 -4 46 -10z"/>
<path d="M183 373 c9 -2 25 -2 35 0 9 3 1 5 -18 5 -19 0 -27 -2 -17 -5z"/>
<path d="M340 320 l0 -70 115 0 115 0 0 70 0 70 -115 0 -115 0 0 -70z m210 0
l0 -50 -90 0 -90 0 0 50 0 50 90 0 90 0 0 -50z"/>
<path d="M320 234 c0 -11 26 -14 135 -14 122 0 135 2 134 18 0 9 -3 12 -5 6
-4 -10 -198 -10 -246 0 -11 3 -18 -2 -18 -10z"/>
<path d="M273 213 c9 -2 23 -2 30 0 6 3 -1 5 -18 5 -16 0 -22 -2 -12 -5z"/>
<path d="M225 200 c-3 -5 -44 -10 -91 -10 l-84 0 0 -64 c0 -42 -4 -66 -12 -69
-7 -3 120 -5 282 -4 162 1 255 3 206 4 -81 4 -87 5 -70 19 16 13 14 13 -13 -1
-22 -10 -62 -15 -128 -15 l-95 0 0 65 c0 50 4 66 18 74 9 6 12 11 5 11 -6 0
-15 -4 -18 -10z m-85 -81 l0 -60 -32 3 c-33 3 -33 4 -36 61 l-3 57 36 0 35 0
0 -61z m60 6 c0 -52 -1 -55 -25 -55 -24 0 -25 3 -25 55 0 52 1 55 25 55 24 0
25 -3 25 -55z"/>
<path d="M331 199 c8 -5 33 -9 56 -9 24 0 43 -5 46 -12 4 -10 6 -10 6 0 1 15
-10 19 -73 25 -30 3 -43 1 -35 -4z"/>
<path d="M495 183 c-16 -9 -50 -22 -75 -29 -35 -10 -39 -13 -18 -13 15 -1 52
11 82 26 29 14 61 23 70 20 27 -10 18 -36 -19 -58 -19 -12 -35 -23 -35 -26 0
-9 63 32 73 49 8 12 7 21 -2 32 -17 20 -38 20 -76 -1z"/>
</g>
</svg>
